<svg width="364" height="364" viewBox="0 0 364 364" fill="none" xmlns="http://www.w3.org/2000/svg">
<path d="M76.4023 306.935C81.837 311.106 87.8405 313.192 94.4127 313.192H119.059C125.884 313.192 131.824 311.233 136.879 307.315C141.935 303.396 144.968 298.025 145.979 291.2V282.858H187.309V291.2C188.32 298.025 191.353 303.396 196.409 307.315C201.464 311.233 207.404 313.192 214.229 313.192H241.529C247.596 313.192 252.904 311.422 257.454 307.883C262.004 304.344 265.29 299.794 267.313 294.233L286.65 229.775L319.638 218.779C322.418 218.021 324.63 216.441 326.273 214.04C327.916 211.638 328.738 208.921 328.738 205.887V131.95C328.738 128.411 327.411 125.315 324.756 122.66C322.102 120.006 319.006 118.679 315.467 118.679H298.404L260.109 81.1416C261.12 76.3388 262.131 72.1048 263.142 68.4395C264.153 64.7743 265.29 61.6777 266.554 59.15C266.807 57.8861 267.06 56.559 267.313 55.1687C267.565 53.7784 267.692 52.5777 267.692 51.5666C267.692 46.5111 266.112 42.5298 262.952 39.6229C259.793 36.7159 255.432 35.2625 249.871 35.2625C238.749 35.2625 228.132 38.043 218.021 43.6041C207.91 49.1652 199.189 56.4958 191.859 65.5958H113.371C91.3793 65.5958 72.8634 73.1791 57.8231 88.3458C42.7828 103.512 35.2627 122.092 35.2627 144.083C35.2627 151.667 35.705 159.629 36.5898 167.971C37.4745 176.312 38.9912 186.108 41.1398 197.356C43.2884 208.605 46.3849 221.749 50.4293 236.79C54.4738 251.83 59.5293 270.093 65.596 291.579C67.3655 297.646 70.9675 302.764 76.4023 306.935Z" fill="#FFDFE0"/>
</svg>
