<svg width="872" height="872" viewBox="0 0 872 872" fill="none" xmlns="http://www.w3.org/2000/svg">
<g filter="url(#filter0_d_1_579)">
<path d="M574.975 400.1C585.269 400.1 594.05 396.467 601.317 389.2C608.583 381.933 612.217 373.153 612.217 362.858C612.217 352.564 608.583 343.632 601.317 336.062C594.05 328.493 585.269 324.708 574.975 324.708C564.075 324.708 554.992 328.493 547.725 336.062C540.458 343.632 536.825 352.564 536.825 362.858C536.825 373.153 540.458 381.933 547.725 389.2C554.992 396.467 564.075 400.1 574.975 400.1ZM306.108 318.35H448.717C455.983 318.35 462.039 316.079 466.883 311.537C471.728 306.996 474.15 301.092 474.15 293.825C474.15 286.558 471.728 280.503 466.883 275.658C462.039 270.814 455.983 268.392 448.717 268.392H306.108C298.842 268.392 292.786 270.814 287.942 275.658C283.097 280.503 280.675 286.558 280.675 293.825C280.675 301.697 283.097 307.753 287.942 311.992C292.786 316.231 298.842 318.35 306.108 318.35ZM226.175 749.808C210.431 749.808 196.049 744.812 183.029 734.821C170.01 724.829 161.381 712.567 157.142 698.033C142.608 646.561 130.497 602.81 120.808 566.779C111.119 530.749 103.701 499.26 98.5542 472.312C93.407 445.365 89.7736 421.9 87.6542 401.917C85.5347 381.933 84.475 362.858 84.475 344.692C84.475 292.008 102.49 247.5 138.521 211.167C174.551 174.833 218.908 156.667 271.592 156.667H459.617C477.178 134.867 498.069 117.306 522.292 103.983C546.514 90.6611 571.947 84 598.592 84C611.914 84 622.36 87.4819 629.929 94.4458C637.499 101.41 641.283 110.947 641.283 123.058C641.283 125.481 640.981 128.357 640.375 131.688C639.769 135.018 639.164 138.197 638.558 141.225C635.531 147.281 632.806 154.699 630.383 163.479C627.961 172.26 625.539 182.403 623.117 193.908L714.858 283.833H755.733C764.211 283.833 771.629 287.012 777.987 293.371C784.346 299.729 787.525 307.147 787.525 315.625V492.75C787.525 500.017 785.557 506.526 781.621 512.279C777.685 518.032 772.386 521.817 765.725 523.633L686.7 549.975L640.375 704.392C635.531 717.714 627.658 728.614 616.758 737.092C605.858 745.569 593.142 749.808 578.608 749.808H513.208C496.858 749.808 482.628 745.115 470.517 735.729C458.406 726.343 451.139 713.475 448.717 697.125V677.142H349.708V697.125C347.286 713.475 340.019 726.343 327.908 735.729C315.797 745.115 301.567 749.808 285.217 749.808H226.175Z" fill="#FFDFE0"/>
</g>
<rect x="125" y="229" width="574" height="354" rx="177" fill="#FFDFE0"/>
<defs>
<filter id="filter0_d_1_579" x="69.475" y="84" width="718.05" height="690.808" filterUnits="userSpaceOnUse" color-interpolation-filters="sRGB">
<feFlood flood-opacity="0" result="BackgroundImageFix"/>
<feColorMatrix in="SourceAlpha" type="matrix" values="0 0 0 0 0 0 0 0 0 0 0 0 0 0 0 0 0 0 127 0" result="hardAlpha"/>
<feOffset dx="-15" dy="25"/>
<feComposite in2="hardAlpha" operator="out"/>
<feColorMatrix type="matrix" values="0 0 0 0 0 0 0 0 0 0 0 0 0 0 0 0 0 0 1 0"/>
<feBlend mode="normal" in2="BackgroundImageFix" result="effect1_dropShadow_1_579"/>
<feBlend mode="normal" in="SourceGraphic" in2="effect1_dropShadow_1_579" result="shape"/>
</filter>
</defs>
</svg>
